<svg width="145" height="145" viewBox="0 0 145 145" fill="none" xmlns="http://www.w3.org/2000/svg">
<path d="M115.792 22.3877C109.448 12.7877 97.0696 10.4158 87.8074 15.7075C79.4603 6.79537 65.3933 6.90186 57.1269 15.7013C43.771 8.04911 26.3399 17.1329 25.7845 32.9217C12.7005 29.8515 0 39.6486 0 53.0804V69.2097C0 78.482 4.04414 87.3216 11.0959 93.4615L38.7677 117.557C39.9719 118.605 39.6484 119.135 39.6484 126.875C39.6484 131.88 43.7059 135.937 48.7109 135.937H120.078C125.083 135.937 129.141 131.88 129.141 126.875C129.141 120.216 128.853 118.168 130.268 114.876L142.399 86.6527C144.125 82.6377 145 78.3911 145 74.0309V41.6203C145 26.6561 129.618 16.5109 115.792 22.3877ZM131.406 74.0309C131.408 76.5256 130.899 78.9942 129.91 81.2846L117.779 109.507C116.298 112.954 115.547 116.599 115.547 120.34V122.344H53.2422V119.431C53.2422 114.795 51.2201 110.375 47.6942 107.305L20.0225 83.2098C15.937 79.6522 13.5938 74.5492 13.5938 69.2094V53.0801C13.5938 43.6755 28.3203 43.5823 28.3203 53.2718V64.9477C28.3203 65.5954 28.4591 66.2356 28.7275 66.8252C28.9958 67.4147 29.3875 67.9398 29.8759 68.3651L31.8584 70.0913C32.5142 70.6623 33.3204 71.0326 34.1809 71.1579C35.0414 71.2832 35.9198 71.1583 36.7113 70.798C37.5027 70.4378 38.1738 69.8574 38.6444 69.1262C39.115 68.3949 39.3652 67.5437 39.3652 66.6741V33.6606C39.3652 24.2874 54.0918 24.1096 54.0918 33.8523V41.4283C54.0918 43.9307 56.1207 45.9595 58.623 45.9595H60.6055C63.1079 45.9595 65.1367 43.9307 65.1367 41.4283V29.7765C65.1367 20.3928 79.8633 20.2396 79.8633 29.9682V41.4283C79.8633 43.9307 81.8919 45.9595 84.3945 45.9595H86.377C88.8796 45.9595 90.9082 43.9307 90.9082 41.4283V33.6603C90.9082 24.3061 105.635 24.0937 105.635 33.852V41.428C105.635 43.9304 107.663 45.9592 110.166 45.9592H112.148C114.651 45.9592 116.68 43.9304 116.68 41.428C116.68 32.0409 131.406 31.9087 131.406 41.6197V74.0309Z" fill="black"/>
</svg>
