<svg width="145" height="125" viewBox="0 0 145 125" fill="none" xmlns="http://www.w3.org/2000/svg">
<g clip-path="url(#clip0_219_81)">
<path d="M86.822 124.049H72.5C63.7072 124.049 57.6116 120.254 54.2132 112.662C52.9725 110.024 52.3521 107.278 52.3521 104.424V104.021C49.0076 102.405 46.3509 100.023 44.382 96.8732C42.413 93.7235 41.4286 90.2912 41.4286 86.5762C41.4286 84.5302 41.5634 83.238 41.8331 82.6996H20.7143C14.9963 82.6996 10.1144 80.6806 6.06864 76.6425C2.02288 72.6045 0 67.7318 0 62.0247C0 56.3176 2.02288 51.445 6.06864 47.4069C10.1144 43.3688 14.9963 41.3498 20.7143 41.3498H29.8577L26.2974 39.9769C22.3056 38.4693 19.0825 35.9523 16.6281 32.4257C14.1736 28.8991 12.9464 24.9822 12.9464 20.6749C12.9464 14.9678 14.9693 10.0952 19.0151 6.0571C23.0608 2.01903 27.9427 0 33.6607 0C36.1421 0 38.5965 0.457648 41.024 1.37294L91.8387 20.6749H124.286C130.004 20.6749 134.886 22.6939 138.931 26.732C142.977 30.7701 145 35.6427 145 41.3498V95.2984C145 100.036 143.544 104.276 140.631 108.018C137.718 111.76 133.942 114.197 129.302 115.327L101.872 122.192C96.9094 123.43 91.8927 124.049 86.822 124.049ZM82.8571 66.6281L70.3153 72.3622L57.1261 78.3385C55.5078 79.0923 54.2132 80.2095 53.2422 81.6901C52.2712 83.1707 51.7857 84.7994 51.7857 86.5762C51.7857 89.0528 52.6758 91.1796 54.4559 92.9563C56.236 94.7331 58.3668 95.6214 60.8482 95.6214C62.2507 95.6214 63.4914 95.3522 64.5703 94.8138L91.9196 82.3766C89.2764 81.8382 87.1052 80.4921 85.406 78.3385C83.7067 76.1849 82.8571 73.762 82.8571 71.07V66.6281ZM108.75 91.7449C108.75 89.2682 107.86 87.1415 106.08 85.3647C104.3 83.588 102.169 82.6996 99.6875 82.6996C98.285 82.6996 97.0443 82.9688 95.9654 83.5072L72.5 94.1677C70.9896 94.8677 69.9916 95.3253 69.5061 95.5407C69.0206 95.756 68.198 96.2137 67.0382 96.9136C65.8784 97.6136 65.0828 98.2462 64.6512 98.8115C64.2197 99.3768 63.7881 100.158 63.3566 101.154C62.925 102.15 62.7093 103.24 62.7093 104.424C62.7093 107.116 63.5589 109.324 65.2581 111.047C66.9573 112.77 69.1555 113.631 71.8527 113.631C72.9315 113.631 73.9565 113.389 74.9275 112.904L103.41 99.9826C105.028 99.2288 106.323 98.1116 107.294 96.631C108.265 95.1503 108.75 93.5216 108.75 91.7449ZM89.9777 31.0124L37.3828 10.9835C36.0882 10.5528 34.8475 10.3375 33.6607 10.3375C30.8017 10.3375 28.3608 11.347 26.3379 13.366C24.315 15.385 23.3036 17.8213 23.3036 20.6749C23.3036 22.8285 23.9104 24.7937 25.1242 26.5705C26.3379 28.3472 27.9427 29.6125 29.9386 30.3663L72.5 46.5185V51.6873H20.7143C17.8553 51.6873 15.4143 52.6968 13.3915 54.7158C11.3686 56.7348 10.3571 59.1712 10.3571 62.0247C10.3571 64.8783 11.3686 67.3146 13.3915 69.3336C15.4143 71.3527 17.8553 72.3622 20.7143 72.3622H64.0039L82.8571 63.8015V47.8107C82.8571 44.4187 84.0978 41.5652 86.5792 39.25L95.5608 31.0124H89.9777ZM86.822 113.712C91.2453 113.712 95.426 113.2 99.3638 112.178L126.794 105.313C129.114 104.721 131.002 103.496 132.458 101.638C133.915 99.7806 134.643 97.6674 134.643 95.2984V41.3498C134.643 38.4962 133.631 36.0599 131.609 34.0409C129.586 32.0219 127.145 31.0124 124.286 31.0124H99.3638L88.3594 41.1883C86.4174 42.965 85.4464 45.1725 85.4464 47.8107V71.7161C85.4464 74.1928 86.3365 76.2656 88.1166 77.9347C89.8968 79.6038 92.0275 80.4383 94.5089 80.4383C96.9903 80.4383 99.1211 79.4961 100.901 77.6117C102.681 75.7272 103.571 73.5467 103.571 71.07V54.2716H106.161V71.07C106.161 74.8389 104.623 77.9078 101.549 80.2768C104.354 80.7075 106.687 82.0132 108.548 84.1937C110.409 86.3743 111.339 88.8913 111.339 91.7449C111.339 94.0062 110.719 96.106 109.478 98.0443C108.238 99.9826 106.592 101.409 104.542 102.325L79.4587 113.712H86.822Z" fill="black"/>
</g>
<defs>
<clipPath id="clip0_219_81">
<rect width="145" height="124.049" fill="white"/>
</clipPath>
</defs>
</svg>
