<svg width="24" height="24" viewBox="0 0 24 24" fill="none" xmlns="http://www.w3.org/2000/svg">
<path d="M20.47 5.6298C20.86 6.0198 20.86 6.6398 20.47 7.0298L9.13 18.3698C9.03847 18.4624 8.92947 18.536 8.80931 18.5862C8.68915 18.6364 8.56022 18.6622 8.43 18.6622C8.29977 18.6622 8.17084 18.6364 8.05068 18.5862C7.93052 18.536 7.82152 18.4624 7.73 18.3698L3.53 14.1698C3.43736 14.0783 3.36381 13.9693 3.31361 13.8491C3.26341 13.729 3.23756 13.6 3.23756 13.4698C3.23756 13.3396 3.26341 13.2106 3.31361 13.0905C3.36381 12.9703 3.43736 12.8613 3.53 12.7698C3.62152 12.6772 3.73052 12.6036 3.85068 12.5534C3.97084 12.5032 4.09977 12.4774 4.23 12.4774C4.36022 12.4774 4.48915 12.5032 4.60931 12.5534C4.72947 12.6036 4.83847 12.6772 4.93 12.7698L8.43 16.2698L19.07 5.6298C19.1615 5.53717 19.2705 5.46361 19.3907 5.41341C19.5108 5.36321 19.6398 5.33737 19.77 5.33737C19.9002 5.33737 20.0292 5.36321 20.1493 5.41341C20.2695 5.46361 20.3785 5.53717 20.47 5.6298ZM18.36 3.5098L8.43 13.4398L5.64 10.6498C4.86 9.8698 3.59 9.8698 2.81 10.6498L1.41 12.0498C0.629997 12.8298 0.629997 14.0998 1.41 14.8798L7.01 20.4798C7.79 21.2598 9.06 21.2598 9.84 20.4798L22.59 7.7398C23.37 6.9598 23.37 5.6898 22.59 4.9098L21.19 3.5098C20.4 2.7298 19.14 2.7298 18.36 3.5098Z" fill="black"/>
</svg>
