<svg width="145" height="145" viewBox="0 0 145 145" fill="none" xmlns="http://www.w3.org/2000/svg">
<g clip-path="url(#clip0_219_85)">
<path d="M120.587 31.8999V28.8342C120.587 16.4832 107.472 7.1151 93.7102 10.2714C85.4151 -3.74716 63.2569 -3.16659 55.524 10.4829C42.1633 7.49204 28.8528 16.4098 28.8528 28.8863V64.6068C22.3948 62.5034 14.8357 63.1715 8.75895 67.119C-0.742114 73.2917 -2.82617 85.0551 4.04968 93.5003L42.8789 141.196C43.8368 142.372 45.1021 143.331 46.5694 143.993C48.0367 144.655 49.6635 145 51.3142 145H123.457C128.281 145 132.466 142.086 133.55 137.973L143.319 100.885C144.435 96.6435 145 92.3049 145 87.9523V50.693C145 39.1893 133.503 30.3046 120.587 31.8999ZM129.464 87.952C129.464 91.2743 129.032 94.5985 128.18 97.8319L119.336 131.406H53.9828L16.6983 85.6128C12.025 79.8722 21.5607 73.4985 26.212 79.211L34.9923 89.9951C37.9036 93.5708 44.3885 91.7756 44.3885 87.3661V28.8863C44.3885 21.6236 56.2251 21.8601 56.2251 29.082V72.4996C56.2251 75.0023 58.5435 77.0309 61.4037 77.0309H63.6227C66.4829 77.0309 68.8012 75.0023 68.8012 72.4996V18.9742C68.8012 11.7064 80.6378 11.948 80.6378 19.1699V72.4996C80.6378 75.0023 82.9562 77.0309 85.8164 77.0309H88.0354C90.8956 77.0309 93.214 75.0023 93.214 72.4996V28.6385C93.214 21.3681 105.05 21.6123 105.05 28.8342V72.4996C105.05 75.0023 107.369 77.0309 110.229 77.0309H112.448C115.308 77.0309 117.627 75.0023 117.627 72.4996V50.8887C117.627 43.4569 129.463 43.6273 129.463 50.693V87.952H129.464Z" fill="black"/>
</g>
<defs>
<clipPath id="clip0_219_85">
<rect width="145" height="145" fill="white"/>
</clipPath>
</defs>
</svg>
